<svg width="512" height="512" viewBox="0 0 512 512" fill="none" xmlns="http://www.w3.org/2000/svg">
  <defs>
    <linearGradient id="g" x1="0" y1="0" x2="512" y2="512" gradientUnits="userSpaceOnUse">
      <stop stop-color="#FF4B8B"/>
      <stop offset="1" stop-color="#A14BFF"/>
    </linearGradient>
    <filter id="glow" x="-20%" y="-20%" width="140%" height="140%">
      <feGaussianBlur stdDeviation="15" result="blur"/>
      <feComposite in="SourceGraphic" in2="blur" operator="over"/>
    </filter>
  </defs>
  
  <!-- App Icon Background -->
  <rect width="512" height="512" rx="110" fill="#0C0F16"/>
  
  <!-- Flask Group -->
  <g filter="url(#glow)">
    <!-- Flask Neck -->
    <path d="M236 100 H276 V180 H236 Z" fill="url(#g)" rx="10"/>
    <!-- Flask Body - Heart/Flask Hybrid -->
    <path d="M256 420 C140 420 120 280 236 180 H276 C392 280 372 420 256 420 Z" fill="url(#g)" fill-opacity="0.95"/>
    
    <!-- Inner Heart Cutout -->
    <path d="M256 335 L245 324 C230 309 210 309 210 330 C210 350 256 385 256 385 C256 385 302 350 302 330 C302 309 282 309 267 324 L256 335Z" fill="#0C0F16"/>
  </g>
  
  <!-- Glass Shine -->
  <path d="M270 220 Q290 220 290 280" stroke="white" stroke-width="8" stroke-linecap="round" stroke-opacity="0.2"/>
</svg>
